<svg width="800" height="450" viewBox="0 0 800 450" xmlns="http://www.w3.org/2000/svg">
  <rect width="800" height="450" fill="#141414"/>
  <circle cx="630" cy="120" r="170" fill="#1A1A1A"/>
  <g transform="translate(250,330)">
    <path d="M0 0 C 0 -110, 90 -170, 90 -170 C 90 -170, 0 -150, 0 0 Z" fill="#00E676" opacity="0.85"/>
    <line x1="0" y1="0" x2="0" y2="-170" stroke="#00E676" stroke-width="3"/>
  </g>
  <g transform="translate(470,250)">
    <rect x="-90" y="-10" width="180" height="110" rx="6" fill="#0A0A0A" stroke="#00E676" stroke-width="2"/>
    <g stroke="#00E676" stroke-width="1.5">
      <line x1="-60" y1="-10" x2="-60" y2="100"/>
      <line x1="-30" y1="-10" x2="-30" y2="100"/>
      <line x1="0" y1="-10" x2="0" y2="100"/>
      <line x1="30" y1="-10" x2="30" y2="100"/>
      <line x1="60" y1="-10" x2="60" y2="100"/>
      <line x1="-90" y1="20" x2="90" y2="20"/>
      <line x1="-90" y1="50" x2="90" y2="50"/>
      <line x1="-90" y1="80" x2="90" y2="80"/>
    </g>
    <line x1="0" y1="100" x2="-40" y2="170" stroke="#00E676" stroke-width="4" stroke-linecap="round"/>
  </g>
</svg>
